#!OML:ASF E:\emotionWalksFemale\Project 1\Capture day 1\Session 1\Female1.ASF
:FULLY-SPECIFIED
:DEGREES
100
root 8.33708 15.1887 41.9058 176.89 -10.8893 -178.65
lowerback 6.62104 3.78887 6.24156
upperback -4.90101 5.63359 0.019186
thorax -8.31323 2.33268 -4.20134
lowerneck 0.200414 17.8089 8.59446
upperneck 8.01043 24.0717 -6.23961
head 4.1524 11.906 -1.94343
rclavicle -5.46658e-014 -1.68967e-014
rhumerus -46.6775 18.6707 -98.0952
rradius 32.3308
rwrist 16.3291
rhand -1.69537 -47.718
rfingers 7.12502
rthumb 23.9655 -76.2422
lclavicle -5.46658e-014 -1.68967e-014
lhumerus -44.4311 -7.07515 89.9827
lradius 38.9747
lwrist -17.524
lhand -7.8213 -33.5035
lfingers 7.12502
lthumb 18.0808 -4.32387
rfemur 1.24918 20.8206 26.0217
rtibia 23.1531
rfoot -24.9657 -35.8186
rtoes -1.91103
lfemur -4.9072 -25.2983 -25.2264
ltibia 27.4019
lfoot -22.1492 16.0933
ltoes -37.1397
101
root 8.33641 15.1973 41.9059 177.08 -10.6292 -178.683
lowerback 6.51045 3.88448 6.2104
upperback -4.98899 5.74649 -0.00510898
thorax -8.33173 2.38393 -4.21705
lowerneck 0.227585 17.8006 8.90381
upperneck 8.1544 24.0773 -6.41537
head 4.25082 11.9073 -2.01481
rclavicle 1.80894e-014 2.19657e-014
rhumerus -46.6397 18.4706 -97.9987
rradius 32.3136
rwrist 17.0001
rhand -1.26585 -48.1147
rfingers 7.12502
rthumb 24.3774 -76.5841
lclavicle 1.80894e-014 2.19657e-014
lhumerus -44.4899 -7.17741 90.0241
lradius 39.0328
lwrist -17.2973
lhand -7.73354 -33.1119
lfingers 7.12502
lthumb 18.1652 -3.94012
rfemur 1.00418 20.7589 25.841
rtibia 23.1078
rfoot -24.8025 -35.5572
rtoes -2.90625
lfemur -5.14457 -25.0079 -25.1466
ltibia 27.4378
lfoot -22.21 16.0653
ltoes -36.8432
102
root 8.33762 15.1933 41.9026 176.928 -10.769 -178.649
lowerback 6.66094 3.84618 6.2796
upperback -4.91845 5.71564 -0.0189271
thorax -8.33924 2.36771 -4.27622
lowerneck -0.271423 17.8291 8.35078
upperneck 8.33653 24.0574 -5.83729
head 4.24761 11.8926 -1.75264
rclavicle -1.17531e-013 -1.2921e-014
rhumerus -46.5023 18.2956 -97.8518
rradius 32.3696
rwrist 17.483
rhand -0.995422 -48.2964
rfingers 7.12502
rthumb 24.6366 -76.7307
lclavicle -1.17531e-013 -1.2921e-014
lhumerus -44.3822 -7.3974 90.0832
lradius 38.9939
lwrist -17.1152
lhand -8.11217 -32.8918
lfingers 7.12502
lthumb 17.8009 -3.6865
rfemur 1.23503 20.8347 26.0023
rtibia 23.0791
rfoot -24.9681 -35.9824
rtoes -2.75019
lfemur -4.98896 -25.0401 -25.1726
ltibia 27.4652
lfoot -22.1781 15.9661
ltoes -37.3125
103
root 8.33896 15.1846 41.8998 176.716 -10.9867 -178.571
lowerback 6.79619 3.77031 6.35749
upperback -4.84096 5.6367 0.017944
thorax -8.34025 2.32908 -4.27928
lowerneck -0.583309 17.8935 8.55479
upperneck 8.93835 24.1451 -5.85235
head 4.51475 11.9194 -1.70683
rclavicle 4.0403e-014 6.95746e-015
rhumerus -46.5719 18.4578 -97.9637
rradius 32.4223
rwrist 16.9525
rhand -1.17294 -48.2067
rfingers 7.12502
rthumb 24.4664 -76.6641
lclavicle 4.0403e-014 6.95746e-015
lhumerus -44.3785 -7.48266 90.1349
lradius 39.02
lwrist -17.0579
lhand -9.81079 -32.9301
lfingers 7.12502
lthumb 16.1658 -3.5842
rfemur 1.53653 20.9273 26.2475
rtibia 23.051
rfoot -25.2315 -36.3578
rtoes -2.55404
lfemur -4.79418 -25.0483 -25.1647
ltibia 27.5204
lfoot -22.1678 15.8456
ltoes -35.652
104
root 8.3377 15.188 41.9001 176.945 -10.8238 -178.601
lowerback 6.61223 3.84833 6.3024
upperback -4.90422 5.71944 0.0346919
thorax -8.29824 2.3717 -4.2275
lowerneck -0.21382 17.8291 8.19214
upperneck 8.20349 24.0579 -5.82272
head 4.17731 11.893 -1.74565
rclavicle 3.66758e-014 -3.67752e-015
rhumerus -46.797 18.8624 -98.2474
rradius 32.4508
rwrist 16.7021
rhand -1.74417 -48.3287
rfingers 7.12502
rthumb 23.9187 -76.859
lclavicle 3.66758e-014 -3.67752e-015
lhumerus -44.4338 -7.48419 90.184
lradius 39.0884
lwrist -17.1144
lhand -8.94728 -33.0852
lfingers 7.12502
lthumb 16.9972 -3.80889
rfemur 1.22111 20.87 26.055
rtibia 23.0672
rfoot -25.0099 -36.2006
rtoes -3.27235
lfemur -5.03994 -25.0191 -25.1013
ltibia 27.5316
lfoot -22.2561 15.8919
ltoes -35.2923
105
root 8.34547 15.1802 41.8896 176.668 -11.526 -178.613
lowerback 6.63436 3.6376 6.16429
upperback -4.7941 5.42819 0.0672002
thorax -8.23868 2.24657 -4.08091
lowerneck -0.466334 17.8021 8.56001
upperneck 8.68828 24.0375 -6.04611
head 4.43594 11.8664 -1.79264
rclavicle 1.13307e-014 1.68967e-014
rhumerus -47.0571 19.2417 -98.5253
rradius 32.4941
rwrist 18.15
rhand -1.60135 -49.131
rfingers 7.12502
rthumb 24.0557 -77.6433
lclavicle 1.13307e-014 1.68967e-014
lhumerus -44.3538 -7.39401 90.1707
lradius 39.1689
lwrist -16.8954
lhand -9.5074 -33.4642
lfingers 7.12502
lthumb 16.458 -4.14234
rfemur 1.79221 20.9914 26.4241
rtibia 23.1036
rfoot -25.7131 -36.8693
rtoes -2.11289
lfemur -4.7409 -25.0299 -25.1661
ltibia 27.5411
lfoot -22.2853 15.2778
ltoes -35.7649
106
root 8.33513 15.1929 41.9033 177.023 -10.6235 -178.673
lowerback 6.65544 3.92111 6.2601
upperback -4.94258 5.81506 0.0136706
thorax -8.35613 2.41619 -4.24293
lowerneck -0.350434 17.8113 8.87429
upperneck 8.60669 24.074 -6.3474
head 4.46914 11.8844 -1.91499
rclavicle 7.92902e-014 1.89839e-014
rhumerus -46.8904 19.2243 -98.4662
rradius 32.4703
rwrist 16.3697
rhand -1.84388 -48.2976
rfingers 7.12502
rthumb 23.8231 -76.8404
lclavicle 7.92902e-014 1.89839e-014
lhumerus -44.2511 -7.18448 90.0041
lradius 39.4795
lwrist -15.7999
lhand -4.82228 -32.4968
lfingers 7.12502
lthumb 20.9642 -3.6098
rfemur 1.00046 20.4535 25.792
rtibia 23.1622
rfoot -24.5404 -35.7357
rtoes -3.55679
lfemur -5.02773 -25.2917 -25.2399
ltibia 27.493
lfoot -22.2376 16.4891
ltoes -36.4712
107
root 8.3373 15.1882 41.9012 176.97 -10.8174 -178.674
lowerback 6.68789 3.86407 6.24023
upperback -4.93762 5.73942 0.00943828
thorax -8.37962 2.3797 -4.23055
lowerneck -0.529099 17.8695 8.888
upperneck 9.07165 24.1408 -6.1603
head 4.62485 11.9103 -1.81948
rclavicle -4.5472e-015 -4.47266e-015
rhumerus -46.6451 18.8783 -98.1768
rradius 32.3838
rwrist 16.7141
rhand -0.624046 -48.5684
rfingers 7.12502
rthumb 24.9925 -76.9536
lclavicle -4.5472e-015 -4.47266e-015
lhumerus -44.3898 -7.61802 90.2218
lradius 39.1827
lwrist -16.5854
lhand -6.66536 -32.9697
lfingers 7.12502
lthumb 19.1926 -3.89675
rfemur 1.09638 20.544 25.88
rtibia 23.2065
rfoot -24.7871 -35.8812
rtoes -2.53329
lfemur -4.91977 -25.7024 -25.3167
ltibia 27.4736
lfoot -22.2196 16.7798
ltoes -36.9874
108
root 8.33762 15.1861 41.9004 176.963 -10.9636 -178.672
lowerback 6.76156 3.83051 6.29759
upperback -4.97153 5.70466 -0.0272409
thorax -8.45517 2.35354 -4.30511
lowerneck -0.195061 17.77 8.91978
upperneck 8.53779 24.024 -6.37097
head 4.42799 11.8652 -1.94911
rclavicle 7.65321e-014 3.37934e-015
rhumerus -46.7572 18.8712 -98.3389
rradius 32.3569
rwrist 16.1754
rhand -1.6753 -48.4035
rfingers 7.12502
rthumb 23.9848 -76.9251
lclavicle 7.65321e-014 3.37934e-015
lhumerus -44.3266 -7.2189 89.9921
lradius 39.0225
lwrist -17.1308
lhand -7.48738 -33.5709
lfingers 7.12502
lthumb 18.402 -4.42128
rfemur 1.11926 20.6899 25.9433
rtibia 23.2593
rfoot -25.0044 -36.096
rtoes -2.18548
lfemur -4.94508 -25.4001 -25.239
ltibia 27.4058
lfoot -22.1992 16.2734
ltoes -35.865
